<mxfile host="app.diagrams.net" modified="2023-11-24T23:43:17.256Z" agent="Mozilla/5.0 (Macintosh; Intel Mac OS X 10_15_7) AppleWebKit/537.36 (KHTML, like Gecko) Chrome/119.0.0.0 Safari/537.36" etag="45sOPFjnTyuOm5wAZvwq" version="22.1.3" type="github" pages="3">
  <diagram name="Page-1" id="R5-OJ7BWQOUNUbRdmiAN">
    <mxGraphModel dx="1786" dy="517" grid="1" gridSize="10" guides="1" tooltips="1" connect="1" arrows="1" fold="1" page="1" pageScale="1" pageWidth="850" pageHeight="1100" math="0" shadow="0">
      <root>
        <mxCell id="0" />
        <mxCell id="1" parent="0" />
        <mxCell id="9PXLDfOKK-NVm9SSHnF0-48" value="video" style="rounded=0;whiteSpace=wrap;html=1;" parent="1" vertex="1">
          <mxGeometry x="-600" y="40" width="200" height="30" as="geometry" />
        </mxCell>
        <mxCell id="9PXLDfOKK-NVm9SSHnF0-51" value="&lt;div style=&quot;&quot;&gt;&lt;span style=&quot;background-color: initial;&quot;&gt;private string _title;&lt;/span&gt;&lt;/div&gt;private string _author;&lt;br&gt;&lt;div style=&quot;&quot;&gt;private iny _length;&lt;/div&gt;&lt;div style=&quot;&quot;&gt;private List&amp;lt;Comment&amp;gt; _comments;&lt;/div&gt;" style="rounded=0;whiteSpace=wrap;html=1;align=left;verticalAlign=top;" parent="1" vertex="1">
          <mxGeometry x="-600" y="70" width="200" height="83" as="geometry" />
        </mxCell>
        <mxCell id="9PXLDfOKK-NVm9SSHnF0-52" value="public string GetTitle()&#xa;public string GetAuthor()&#xa;public int GetLegth()&#xa;Public void AddComment()" style="rounded=0;align=left;verticalAlign=top;horizontal=1;labelPosition=center;verticalLabelPosition=middle;whiteSpace=wrap;" parent="1" vertex="1">
          <mxGeometry x="-600" y="153" width="200" height="80" as="geometry" />
        </mxCell>
        <mxCell id="9PXLDfOKK-NVm9SSHnF0-55" value="Contractors &#xa;public Video(string title, stringauthor, int length){}" style="rounded=0;align=left;verticalAlign=top;" parent="1" vertex="1">
          <mxGeometry x="-600" y="233" width="270" height="50" as="geometry" />
        </mxCell>
        <mxCell id="9PXLDfOKK-NVm9SSHnF0-58" value="comment" style="rounded=0;whiteSpace=wrap;html=1;" parent="1" vertex="1">
          <mxGeometry x="-280" y="40" width="200" height="20" as="geometry" />
        </mxCell>
        <mxCell id="9PXLDfOKK-NVm9SSHnF0-61" value="private string _commenterName;&#xa;private string _commentText;" style="rounded=0;whiteSpace=wrap;align=left;verticalAlign=top;" parent="1" vertex="1">
          <mxGeometry x="-280" y="60" width="200" height="50" as="geometry" />
        </mxCell>
        <mxCell id="9PXLDfOKK-NVm9SSHnF0-62" value="public string Commenter()&#xa;public string Text()" style="rounded=0;align=left;verticalAlign=top;" parent="1" vertex="1">
          <mxGeometry x="-280" y="110" width="200" height="50" as="geometry" />
        </mxCell>
        <mxCell id="9PXLDfOKK-NVm9SSHnF0-63" value="Contractors &#xa;public Comment(string commenter,string text) {}" style="rounded=0;align=left;verticalAlign=top;" parent="1" vertex="1">
          <mxGeometry x="-280" y="160" width="270" height="40" as="geometry" />
        </mxCell>
        <mxCell id="9PXLDfOKK-NVm9SSHnF0-64" value="program" style="rounded=0;whiteSpace=wrap;html=1;" parent="1" vertex="1">
          <mxGeometry x="-830" y="40" width="140" height="30" as="geometry" />
        </mxCell>
        <mxCell id="9PXLDfOKK-NVm9SSHnF0-65" value="Videos:List&amp;lt;Video&amp;gt;" style="rounded=0;whiteSpace=wrap;html=1;" parent="1" vertex="1">
          <mxGeometry x="-830" y="70" width="140" height="30" as="geometry" />
        </mxCell>
        <mxCell id="9PXLDfOKK-NVm9SSHnF0-66" value="Main()&#xa;DisplayInfo(video:Video)" style="rounded=0;align=left;verticalAlign=top;" parent="1" vertex="1">
          <mxGeometry x="-830" y="100" width="140" height="47" as="geometry" />
        </mxCell>
        <mxCell id="9PXLDfOKK-NVm9SSHnF0-67" value="Attributes" style="rounded=0;whiteSpace=wrap;html=1;" parent="1" vertex="1">
          <mxGeometry x="-400" y="110" width="80" as="geometry" />
        </mxCell>
        <mxCell id="9PXLDfOKK-NVm9SSHnF0-68" value="Behaviors" style="rounded=0;whiteSpace=wrap;html=1;" parent="1" vertex="1">
          <mxGeometry x="-400" y="180" width="90" as="geometry" />
        </mxCell>
        <mxCell id="9PXLDfOKK-NVm9SSHnF0-73" value="Class" style="text;html=1;strokeColor=none;fillColor=none;align=center;verticalAlign=middle;whiteSpace=wrap;rounded=0;" parent="1" vertex="1">
          <mxGeometry x="-400" y="40" width="60" height="30" as="geometry" />
        </mxCell>
        <mxCell id="9PXLDfOKK-NVm9SSHnF0-74" value="Class" style="text;html=1;strokeColor=none;fillColor=none;align=center;verticalAlign=middle;whiteSpace=wrap;rounded=0;" parent="1" vertex="1">
          <mxGeometry x="-80" y="35" width="60" height="30" as="geometry" />
        </mxCell>
        <mxCell id="9PXLDfOKK-NVm9SSHnF0-75" value="Attributes" style="text;html=1;strokeColor=none;fillColor=none;align=center;verticalAlign=middle;whiteSpace=wrap;rounded=0;" parent="1" vertex="1">
          <mxGeometry x="-70" y="70" width="60" height="30" as="geometry" />
        </mxCell>
        <mxCell id="9PXLDfOKK-NVm9SSHnF0-76" value="Behaviors" style="text;html=1;strokeColor=none;fillColor=none;align=center;verticalAlign=middle;whiteSpace=wrap;rounded=0;" parent="1" vertex="1">
          <mxGeometry x="-70" y="120" width="60" height="30" as="geometry" />
        </mxCell>
        <mxCell id="9PXLDfOKK-NVm9SSHnF0-77" value="Class" style="text;html=1;strokeColor=none;fillColor=none;align=center;verticalAlign=middle;whiteSpace=wrap;rounded=0;" parent="1" vertex="1">
          <mxGeometry x="-690" y="40" width="60" height="30" as="geometry" />
        </mxCell>
        <mxCell id="9PXLDfOKK-NVm9SSHnF0-78" value="Attributes" style="text;html=1;strokeColor=none;fillColor=none;align=center;verticalAlign=middle;whiteSpace=wrap;rounded=0;" parent="1" vertex="1">
          <mxGeometry x="-680" y="70" width="60" height="30" as="geometry" />
        </mxCell>
        <mxCell id="9PXLDfOKK-NVm9SSHnF0-79" value="Behaviors" style="text;html=1;strokeColor=none;fillColor=none;align=center;verticalAlign=middle;whiteSpace=wrap;rounded=0;" parent="1" vertex="1">
          <mxGeometry x="-680" y="110" width="60" height="30" as="geometry" />
        </mxCell>
        <mxCell id="9PXLDfOKK-NVm9SSHnF0-80" value="Abstraction" style="text;html=1;strokeColor=none;fillColor=none;align=center;verticalAlign=middle;whiteSpace=wrap;rounded=0;" parent="1" vertex="1">
          <mxGeometry x="-810" y="243" width="60" height="30" as="geometry" />
        </mxCell>
        <mxCell id="9PXLDfOKK-NVm9SSHnF0-81" value="Customer Class" style="rounded=0;whiteSpace=wrap;html=1;" parent="1" vertex="1">
          <mxGeometry x="-820" y="490" width="190" height="30" as="geometry" />
        </mxCell>
        <mxCell id="9PXLDfOKK-NVm9SSHnF0-82" value="private string _name;&#xa;private Address _address; " style="rounded=0;whiteSpace=wrap;align=left;verticalAlign=top;" parent="1" vertex="1">
          <mxGeometry x="-820" y="520" width="190" height="50" as="geometry" />
        </mxCell>
        <mxCell id="9PXLDfOKK-NVm9SSHnF0-83" value="Public bool IsInUSA()&#xa;Public string GetAddressAsString()" style="rounded=0;align=left;verticalAlign=top;" parent="1" vertex="1">
          <mxGeometry x="-820" y="570" width="190" height="50" as="geometry" />
        </mxCell>
        <mxCell id="9PXLDfOKK-NVm9SSHnF0-84" value="Contractors &#xa;Public Customer(string name,Address address){}" style="rounded=0;align=left;verticalAlign=top;" parent="1" vertex="1">
          <mxGeometry x="-820" y="620" width="280" height="40" as="geometry" />
        </mxCell>
        <mxCell id="9PXLDfOKK-NVm9SSHnF0-85" value="Address Class&amp;nbsp;" style="rounded=0;whiteSpace=wrap;html=1;" parent="1" vertex="1">
          <mxGeometry x="-510" y="480" width="190" height="30" as="geometry" />
        </mxCell>
        <mxCell id="9PXLDfOKK-NVm9SSHnF0-87" value="private string _street;&#xa;private string _city;&#xa;private string _state;&#xa;private string _country; " style="rounded=0;align=left;verticalAlign=top;" parent="1" vertex="1">
          <mxGeometry x="-510" y="510" width="190" height="70" as="geometry" />
        </mxCell>
        <mxCell id="9PXLDfOKK-NVm9SSHnF0-88" value="public bool IsInUSA()&#xa;public string ToString()" style="rounded=0;align=left;verticalAlign=top;" parent="1" vertex="1">
          <mxGeometry x="-510" y="580" width="190" height="40" as="geometry" />
        </mxCell>
        <mxCell id="9PXLDfOKK-NVm9SSHnF0-89" value="Contractors &#xa;public Address(string street,string city, string state, string country){}" style="rounded=0;align=left;verticalAlign=top;" parent="1" vertex="1">
          <mxGeometry x="-510" y="620" width="360" height="40" as="geometry" />
        </mxCell>
        <mxCell id="9PXLDfOKK-NVm9SSHnF0-90" value="Order Class" style="rounded=0;whiteSpace=wrap;html=1;" parent="1" vertex="1">
          <mxGeometry x="-820" y="730" width="195" height="30" as="geometry" />
        </mxCell>
        <mxCell id="9PXLDfOKK-NVm9SSHnF0-92" value="private List&lt;Product&gt;products;&#xa;private Customer customer;" style="rounded=0;align=left;verticalAlign=top;" parent="1" vertex="1">
          <mxGeometry x="-820" y="760" width="195" height="40" as="geometry" />
        </mxCell>
        <mxCell id="9PXLDfOKK-NVm9SSHnF0-93" value="AddProduct(product)&#xa;CalculateTotalCoast()&#xa;GetPackingLabel()&#xa;GetShippingLable()" style="rounded=0;align=left;verticalAlign=top;" parent="1" vertex="1">
          <mxGeometry x="-820" y="800" width="195" height="70" as="geometry" />
        </mxCell>
        <mxCell id="9PXLDfOKK-NVm9SSHnF0-94" value="Contractors &#xa;public Order(customer){}" style="rounded=0;align=left;verticalAlign=top;" parent="1" vertex="1">
          <mxGeometry x="-820" y="870" width="215" height="40" as="geometry" />
        </mxCell>
        <mxCell id="9PXLDfOKK-NVm9SSHnF0-95" value="Product Class" style="rounded=0;whiteSpace=wrap;html=1;" parent="1" vertex="1">
          <mxGeometry x="-520" y="740" width="190" height="30" as="geometry" />
        </mxCell>
        <mxCell id="9PXLDfOKK-NVm9SSHnF0-96" value="private string _name;&#xa;private int _productId;&#xa;private float _price;&#xa;private int _quantity;" style="rounded=0;align=left;verticalAlign=top;" parent="1" vertex="1">
          <mxGeometry x="-520" y="770" width="190" height="70" as="geometry" />
        </mxCell>
        <mxCell id="9PXLDfOKK-NVm9SSHnF0-97" value="Public float CalculatePrice()" style="rounded=0;align=left;verticalAlign=top;" parent="1" vertex="1">
          <mxGeometry x="-520" y="840" width="190" height="30" as="geometry" />
        </mxCell>
        <mxCell id="9PXLDfOKK-NVm9SSHnF0-98" value="Contractors &#xa;product(string name, int productId,double price, int quantity){}" style="rounded=0;align=left;verticalAlign=top;" parent="1" vertex="1">
          <mxGeometry x="-520" y="870" width="330" height="40" as="geometry" />
        </mxCell>
        <mxCell id="9PXLDfOKK-NVm9SSHnF0-99" value="progam" style="rounded=0;whiteSpace=wrap;html=1;" parent="1" vertex="1">
          <mxGeometry x="-820" y="380" width="120" height="20" as="geometry" />
        </mxCell>
        <mxCell id="9PXLDfOKK-NVm9SSHnF0-105" style="edgeStyle=orthogonalEdgeStyle;rounded=0;orthogonalLoop=1;jettySize=auto;html=1;exitX=0.5;exitY=0;exitDx=0;exitDy=0;" parent="1" source="9PXLDfOKK-NVm9SSHnF0-101" target="9PXLDfOKK-NVm9SSHnF0-102" edge="1">
          <mxGeometry relative="1" as="geometry" />
        </mxCell>
        <mxCell id="9PXLDfOKK-NVm9SSHnF0-101" value="static void Main()" style="rounded=0;whiteSpace=wrap;html=1;" parent="1" vertex="1">
          <mxGeometry x="-820" y="420" width="120" height="30" as="geometry" />
        </mxCell>
        <mxCell id="9PXLDfOKK-NVm9SSHnF0-102" value="" style="rounded=0;whiteSpace=wrap;html=1;" parent="1" vertex="1">
          <mxGeometry x="-820" y="400" width="120" height="20" as="geometry" />
        </mxCell>
        <mxCell id="9PXLDfOKK-NVm9SSHnF0-104" style="edgeStyle=orthogonalEdgeStyle;rounded=0;orthogonalLoop=1;jettySize=auto;html=1;exitX=0.25;exitY=0;exitDx=0;exitDy=0;" parent="1" source="9PXLDfOKK-NVm9SSHnF0-103" edge="1">
          <mxGeometry relative="1" as="geometry">
            <mxPoint x="-620" y="420" as="targetPoint" />
          </mxGeometry>
        </mxCell>
        <mxCell id="9PXLDfOKK-NVm9SSHnF0-103" value="Encapsulation" style="text;html=1;strokeColor=none;fillColor=none;align=center;verticalAlign=middle;whiteSpace=wrap;rounded=0;" parent="1" vertex="1">
          <mxGeometry x="-625" y="420" width="60" height="30" as="geometry" />
        </mxCell>
      </root>
    </mxGraphModel>
  </diagram>
  <diagram id="VLsyTpS_yOX2RKHeXL-u" name="Page-2">
    <mxGraphModel dx="936" dy="517" grid="1" gridSize="10" guides="1" tooltips="1" connect="1" arrows="1" fold="1" page="1" pageScale="1" pageWidth="850" pageHeight="1100" math="0" shadow="0">
      <root>
        <mxCell id="0" />
        <mxCell id="1" parent="0" />
        <mxCell id="OmMRukVGcHKzC-Iw6P2C-1" value="Address Class" style="rounded=0;whiteSpace=wrap;html=1;" vertex="1" parent="1">
          <mxGeometry x="40" y="40" width="160" height="30" as="geometry" />
        </mxCell>
        <mxCell id="OmMRukVGcHKzC-Iw6P2C-26" value="" style="edgeStyle=orthogonalEdgeStyle;rounded=0;orthogonalLoop=1;jettySize=auto;html=1;" edge="1" parent="1" source="OmMRukVGcHKzC-Iw6P2C-3" target="OmMRukVGcHKzC-Iw6P2C-4">
          <mxGeometry relative="1" as="geometry" />
        </mxCell>
        <mxCell id="OmMRukVGcHKzC-Iw6P2C-3" value="public string _Street {}&lt;br&gt;public string_City{}&lt;br&gt;&lt;div style=&quot;&quot;&gt;&lt;span style=&quot;background-color: initial;&quot;&gt;public string _State{}&lt;/span&gt;&lt;/div&gt;&lt;div style=&quot;&quot;&gt;&lt;span style=&quot;background-color: initial;&quot;&gt;public string ZipCode{}&lt;/span&gt;&lt;/div&gt;" style="rounded=0;whiteSpace=wrap;html=1;align=left;" vertex="1" parent="1">
          <mxGeometry x="40" y="70" width="160" height="80" as="geometry" />
        </mxCell>
        <mxCell id="OmMRukVGcHKzC-Iw6P2C-4" value="" style="rounded=0;whiteSpace=wrap;html=1;" vertex="1" parent="1">
          <mxGeometry x="40" y="150" width="160" height="30" as="geometry" />
        </mxCell>
        <mxCell id="OmMRukVGcHKzC-Iw6P2C-6" value="" style="endArrow=classic;html=1;rounded=0;" edge="1" parent="1">
          <mxGeometry width="50" height="50" relative="1" as="geometry">
            <mxPoint x="270" y="110" as="sourcePoint" />
            <mxPoint x="220" y="110" as="targetPoint" />
          </mxGeometry>
        </mxCell>
        <mxCell id="OmMRukVGcHKzC-Iw6P2C-7" value="Event Base Class" style="rounded=0;whiteSpace=wrap;html=1;" vertex="1" parent="1">
          <mxGeometry x="280" y="10" width="190" height="20" as="geometry" />
        </mxCell>
        <mxCell id="OmMRukVGcHKzC-Iw6P2C-8" value="private string _title;&#xa;private string _description;&#xa;private DateTime _date;&#xa;private string _time;&#xa;private Address _address;" style="rounded=0;align=left;verticalAlign=top;" vertex="1" parent="1">
          <mxGeometry x="280" y="30" width="190" height="90" as="geometry" />
        </mxCell>
        <mxCell id="OmMRukVGcHKzC-Iw6P2C-9" value="public string GetStandardDetails()&#xa;public string GetFullDetails()&#xa;public string GetShortDescription()" style="rounded=0;align=left;verticalAlign=top;" vertex="1" parent="1">
          <mxGeometry x="280" y="120" width="190" height="60" as="geometry" />
        </mxCell>
        <mxCell id="OmMRukVGcHKzC-Iw6P2C-11" value="" style="endArrow=none;html=1;rounded=0;" edge="1" parent="1">
          <mxGeometry width="50" height="50" relative="1" as="geometry">
            <mxPoint x="160" y="270" as="sourcePoint" />
            <mxPoint x="700" y="270" as="targetPoint" />
          </mxGeometry>
        </mxCell>
        <mxCell id="OmMRukVGcHKzC-Iw6P2C-12" value="" style="endArrow=none;html=1;rounded=0;" edge="1" parent="1">
          <mxGeometry width="50" height="50" relative="1" as="geometry">
            <mxPoint x="700" y="270" as="sourcePoint" />
            <mxPoint x="700" y="310" as="targetPoint" />
            <Array as="points" />
          </mxGeometry>
        </mxCell>
        <mxCell id="OmMRukVGcHKzC-Iw6P2C-13" value="" style="endArrow=none;html=1;rounded=0;" edge="1" parent="1">
          <mxGeometry width="50" height="50" relative="1" as="geometry">
            <mxPoint x="160" y="320" as="sourcePoint" />
            <mxPoint x="160" y="270" as="targetPoint" />
          </mxGeometry>
        </mxCell>
        <mxCell id="OmMRukVGcHKzC-Iw6P2C-14" value="Lecture - Child Class" style="rounded=0;whiteSpace=wrap;html=1;" vertex="1" parent="1">
          <mxGeometry x="100" y="320" width="180" height="20" as="geometry" />
        </mxCell>
        <mxCell id="OmMRukVGcHKzC-Iw6P2C-15" value="Reception - Child Class" style="rounded=0;whiteSpace=wrap;html=1;" vertex="1" parent="1">
          <mxGeometry x="320" y="500" width="180" height="20" as="geometry" />
        </mxCell>
        <mxCell id="OmMRukVGcHKzC-Iw6P2C-16" value="Outdoor Gathering - Child Class" style="rounded=0;whiteSpace=wrap;html=1;" vertex="1" parent="1">
          <mxGeometry x="620" y="310" width="190" height="20" as="geometry" />
        </mxCell>
        <mxCell id="OmMRukVGcHKzC-Iw6P2C-19" value="private string _speaker;&#xa;private int _capacity;" style="rounded=0;align=left;verticalAlign=top;" vertex="1" parent="1">
          <mxGeometry x="100" y="340" width="180" height="40" as="geometry" />
        </mxCell>
        <mxCell id="OmMRukVGcHKzC-Iw6P2C-20" value="private string _rsvpEmail;" style="rounded=0;align=left;verticalAlign=top;" vertex="1" parent="1">
          <mxGeometry x="320" y="520" width="180" height="30" as="geometry" />
        </mxCell>
        <mxCell id="OmMRukVGcHKzC-Iw6P2C-21" value="private string _weatherStatement;" style="rounded=0;whiteSpace=wrap;html=1;" vertex="1" parent="1">
          <mxGeometry x="620" y="330" width="190" height="30" as="geometry" />
        </mxCell>
        <mxCell id="OmMRukVGcHKzC-Iw6P2C-24" value="Inheritance" style="text;html=1;strokeColor=none;fillColor=none;align=center;verticalAlign=middle;whiteSpace=wrap;rounded=0;" vertex="1" parent="1">
          <mxGeometry x="520" y="50" width="60" height="30" as="geometry" />
        </mxCell>
        <mxCell id="OmMRukVGcHKzC-Iw6P2C-27" value="Constructors &#xa;public Event(string title, string description, DateTimedate, string time, Address address){}" style="rounded=0;align=left;verticalAlign=top;" vertex="1" parent="1">
          <mxGeometry x="280" y="180" width="480" height="50" as="geometry" />
        </mxCell>
        <mxCell id="OmMRukVGcHKzC-Iw6P2C-28" value="Constructors &#xa;public Address(string street, string city, string state,string zipCode){}" style="rounded=0;whiteSpace=wrap;align=left;verticalAlign=top;" vertex="1" parent="1">
          <mxGeometry x="20" y="180" width="220" height="50" as="geometry" />
        </mxCell>
        <mxCell id="OmMRukVGcHKzC-Iw6P2C-29" value="Constructors &#xa;public Lecture(string title,string description, DateTime date, string time, Address address, stringspeaker, int capacity) : base(title, description, date, time, address){}" style="rounded=0;align=left;verticalAlign=top;whiteSpace=wrap;" vertex="1" parent="1">
          <mxGeometry x="10" y="410" width="380" height="70" as="geometry" />
        </mxCell>
        <mxCell id="OmMRukVGcHKzC-Iw6P2C-30" value="" style="endArrow=classic;html=1;rounded=0;" edge="1" parent="1">
          <mxGeometry width="50" height="50" relative="1" as="geometry">
            <mxPoint x="400" y="490" as="sourcePoint" />
            <mxPoint x="400" y="250" as="targetPoint" />
          </mxGeometry>
        </mxCell>
        <mxCell id="OmMRukVGcHKzC-Iw6P2C-32" value="Constructors &#xa;public Reception(stringtitle, string description, DateTime date, string time, Address address, stringrsvpEmail) : base(title, description, date, time, address){}" style="rounded=0;align=left;verticalAlign=top;whiteSpace=wrap;" vertex="1" parent="1">
          <mxGeometry x="320" y="590" width="490" height="60" as="geometry" />
        </mxCell>
        <mxCell id="OmMRukVGcHKzC-Iw6P2C-33" value="Constructors &#xa;publicOutdoorGathering(string title, string description, DateTime date, string time,Address address, string weatherStatement) : base(title, description, date,time, address){}" style="rounded=0;whiteSpace=wrap;align=left;verticalAlign=top;" vertex="1" parent="1">
          <mxGeometry x="460" y="390" width="350" height="70" as="geometry" />
        </mxCell>
        <mxCell id="OmMRukVGcHKzC-Iw6P2C-34" value="public new stringGetFullDetails()" style="rounded=0;align=left;verticalAlign=top;" vertex="1" parent="1">
          <mxGeometry x="100" y="380" width="180" height="30" as="geometry" />
        </mxCell>
        <mxCell id="OmMRukVGcHKzC-Iw6P2C-35" value="public new stringGetFullDetails()" style="rounded=0;align=left;verticalAlign=top;" vertex="1" parent="1">
          <mxGeometry x="620" y="360" width="190" height="30" as="geometry" />
        </mxCell>
        <mxCell id="OmMRukVGcHKzC-Iw6P2C-37" value="public new stringGetFullDetails()" style="rounded=0;align=left;verticalAlign=top;" vertex="1" parent="1">
          <mxGeometry x="320" y="550" width="180" height="40" as="geometry" />
        </mxCell>
      </root>
    </mxGraphModel>
  </diagram>
  <diagram id="zVDSLygoh5firAvRJUWw" name="Page-3">
    <mxGraphModel dx="936" dy="517" grid="1" gridSize="10" guides="1" tooltips="1" connect="1" arrows="1" fold="1" page="1" pageScale="1" pageWidth="850" pageHeight="1100" math="0" shadow="0">
      <root>
        <mxCell id="0" />
        <mxCell id="1" parent="0" />
        <mxCell id="E06MnzWzpl7qg3DZkaAl-1" value="Activity Class" style="rounded=0;whiteSpace=wrap;html=1;" vertex="1" parent="1">
          <mxGeometry x="40" y="150" width="190" height="30" as="geometry" />
        </mxCell>
        <mxCell id="E06MnzWzpl7qg3DZkaAl-2" value="private DateTime _date;&#xa;private int _minutes;" style="rounded=0;align=left;verticalAlign=top;" vertex="1" parent="1">
          <mxGeometry x="40" y="180" width="190" height="40" as="geometry" />
        </mxCell>
        <mxCell id="E06MnzWzpl7qg3DZkaAl-3" value="public virtual double GetDistance()&#xa;public virtual double GetSpeed()&#xa;public virtual double GetPace()&#xa;" style="rounded=0;align=left;verticalAlign=top;" vertex="1" parent="1">
          <mxGeometry x="40" y="220" width="190" height="60" as="geometry" />
        </mxCell>
        <mxCell id="E06MnzWzpl7qg3DZkaAl-4" value="Contractors:&#xa;public Activity(DateTime date, int minutes){}" style="rounded=0;align=left;verticalAlign=top;" vertex="1" parent="1">
          <mxGeometry x="40" y="320" width="240" height="40" as="geometry" />
        </mxCell>
        <mxCell id="E06MnzWzpl7qg3DZkaAl-5" value="Program Class" style="rounded=0;whiteSpace=wrap;html=1;" vertex="1" parent="1">
          <mxGeometry x="40" y="20" width="160" height="30" as="geometry" />
        </mxCell>
        <mxCell id="E06MnzWzpl7qg3DZkaAl-6" value="static void Main()" style="rounded=0;align=left;verticalAlign=top;" vertex="1" parent="1">
          <mxGeometry x="40" y="50" width="160" height="30" as="geometry" />
        </mxCell>
        <mxCell id="E06MnzWzpl7qg3DZkaAl-41" style="edgeStyle=orthogonalEdgeStyle;rounded=0;orthogonalLoop=1;jettySize=auto;html=1;" edge="1" parent="1" source="E06MnzWzpl7qg3DZkaAl-9">
          <mxGeometry relative="1" as="geometry">
            <mxPoint x="140" y="380" as="targetPoint" />
          </mxGeometry>
        </mxCell>
        <mxCell id="E06MnzWzpl7qg3DZkaAl-9" value="Swimming Child Class&amp;nbsp;" style="rounded=0;whiteSpace=wrap;html=1;" vertex="1" parent="1">
          <mxGeometry x="40" y="430" width="200" height="30" as="geometry" />
        </mxCell>
        <mxCell id="E06MnzWzpl7qg3DZkaAl-11" value="private int laps;" style="rounded=0;align=left;verticalAlign=top;" vertex="1" parent="1">
          <mxGeometry x="40" y="460" width="200" height="30" as="geometry" />
        </mxCell>
        <mxCell id="E06MnzWzpl7qg3DZkaAl-12" value="public override double GetDistance()&#xa;public overridedouble GetSpeed()&#xa;public overridedouble GetPace()&#xa;public string GetSummary()" style="rounded=0;align=left;verticalAlign=top;" vertex="1" parent="1">
          <mxGeometry x="40" y="490" width="200" height="70" as="geometry" />
        </mxCell>
        <mxCell id="E06MnzWzpl7qg3DZkaAl-13" value="Contractors:&#xa; public Swimming(DateTime date, int minutes,int laps) : base(date, minutes)" style="rounded=0;align=left;verticalAlign=top;whiteSpace=wrap;" vertex="1" parent="1">
          <mxGeometry x="40" y="560" width="260" height="50" as="geometry" />
        </mxCell>
        <mxCell id="E06MnzWzpl7qg3DZkaAl-14" value="Running Child Class&amp;nbsp;" style="rounded=0;whiteSpace=wrap;html=1;" vertex="1" parent="1">
          <mxGeometry x="320" y="150" width="200" height="30" as="geometry" />
        </mxCell>
        <mxCell id="E06MnzWzpl7qg3DZkaAl-15" value="private double _distance;" style="rounded=0;align=left;verticalAlign=top;" vertex="1" parent="1">
          <mxGeometry x="320" y="180" width="200" height="30" as="geometry" />
        </mxCell>
        <mxCell id="E06MnzWzpl7qg3DZkaAl-17" value="public override double GetDistance() &#xa;public override double GetSpeed()&#xa;public override double GetPace()" style="rounded=0;align=left;verticalAlign=top;" vertex="1" parent="1">
          <mxGeometry x="320" y="210" width="200" height="60" as="geometry" />
        </mxCell>
        <mxCell id="E06MnzWzpl7qg3DZkaAl-18" value="Contractors:&#xa;public Running(DateTime date,int minutes, double distance) : base(date, minutes)" style="rounded=0;whiteSpace=wrap;align=left;verticalAlign=top;" vertex="1" parent="1">
          <mxGeometry x="320" y="300" width="250" height="50" as="geometry" />
        </mxCell>
        <mxCell id="E06MnzWzpl7qg3DZkaAl-24" value="Cycling Child Class" style="rounded=0;whiteSpace=wrap;html=1;" vertex="1" parent="1">
          <mxGeometry x="590" y="150" width="190" height="30" as="geometry" />
        </mxCell>
        <mxCell id="E06MnzWzpl7qg3DZkaAl-25" value="&lt;br&gt;&lt;br&gt;&lt;span style=&quot;background-color: initial;&quot;&gt;&lt;br&gt;&lt;br&gt;&lt;br&gt;private double _speed;&lt;/span&gt;&lt;br&gt;&lt;br&gt;&lt;br&gt;&lt;br&gt;&lt;br&gt;&lt;br&gt;" style="rounded=0;html=1;align=left;verticalAlign=middle;" vertex="1" parent="1">
          <mxGeometry x="590" y="180" width="190" height="30" as="geometry" />
        </mxCell>
        <mxCell id="E06MnzWzpl7qg3DZkaAl-26" value="public override double GetSpeed()&#xa;public override double GetPace()" style="rounded=0;align=left;verticalAlign=top;" vertex="1" parent="1">
          <mxGeometry x="590" y="210" width="190" height="40" as="geometry" />
        </mxCell>
        <mxCell id="E06MnzWzpl7qg3DZkaAl-27" value="Contractors:&#xa;public Cycling(DateTime date,int minutes, double speed) : base(date, minutes)" style="rounded=0;whiteSpace=wrap;align=left;verticalAlign=top;" vertex="1" parent="1">
          <mxGeometry x="590" y="290" width="240" height="60" as="geometry" />
        </mxCell>
        <mxCell id="E06MnzWzpl7qg3DZkaAl-29" value="&lt;meta charset=&quot;utf-8&quot;&gt;&lt;span style=&quot;color: rgb(0, 0, 0); font-family: Helvetica; font-size: 12px; font-style: normal; font-variant-ligatures: normal; font-variant-caps: normal; font-weight: 400; letter-spacing: normal; orphans: 2; text-indent: 0px; text-transform: none; widows: 2; word-spacing: 0px; -webkit-text-stroke-width: 0px; background-color: rgb(251, 251, 251); text-decoration-thickness: initial; text-decoration-style: initial; text-decoration-color: initial; float: none; display: inline !important;&quot;&gt;public string GetSummary()&lt;/span&gt;" style="rounded=0;whiteSpace=wrap;html=1;align=left;" vertex="1" parent="1">
          <mxGeometry x="40" y="280" width="190" height="40" as="geometry" />
        </mxCell>
        <mxCell id="E06MnzWzpl7qg3DZkaAl-31" value="&lt;meta charset=&quot;utf-8&quot;&gt;&lt;span style=&quot;color: rgb(0, 0, 0); font-family: Helvetica; font-size: 12px; font-style: normal; font-variant-ligatures: normal; font-variant-caps: normal; font-weight: 400; letter-spacing: normal; orphans: 2; text-indent: 0px; text-transform: none; widows: 2; word-spacing: 0px; -webkit-text-stroke-width: 0px; background-color: rgb(251, 251, 251); text-decoration-thickness: initial; text-decoration-style: initial; text-decoration-color: initial; float: none; display: inline !important;&quot;&gt;public string GetSummary()&lt;/span&gt;" style="rounded=0;whiteSpace=wrap;html=1;align=left;" vertex="1" parent="1">
          <mxGeometry x="320" y="270" width="200" height="30" as="geometry" />
        </mxCell>
        <mxCell id="E06MnzWzpl7qg3DZkaAl-32" value="&lt;meta charset=&quot;utf-8&quot;&gt;&lt;span style=&quot;color: rgb(0, 0, 0); font-family: Helvetica; font-size: 12px; font-style: normal; font-variant-ligatures: normal; font-variant-caps: normal; font-weight: 400; letter-spacing: normal; orphans: 2; text-indent: 0px; text-transform: none; widows: 2; word-spacing: 0px; -webkit-text-stroke-width: 0px; background-color: rgb(251, 251, 251); text-decoration-thickness: initial; text-decoration-style: initial; text-decoration-color: initial; float: none; display: inline !important;&quot;&gt;public string GetSummary()&lt;/span&gt;" style="rounded=0;whiteSpace=wrap;html=1;align=left;" vertex="1" parent="1">
          <mxGeometry x="590" y="250" width="190" height="40" as="geometry" />
        </mxCell>
        <mxCell id="E06MnzWzpl7qg3DZkaAl-38" value="" style="endArrow=none;dashed=1;html=1;dashPattern=1 3;strokeWidth=2;rounded=0;" edge="1" parent="1">
          <mxGeometry width="50" height="50" relative="1" as="geometry">
            <mxPoint x="124.5" y="130" as="sourcePoint" />
            <mxPoint x="124.5" y="90" as="targetPoint" />
          </mxGeometry>
        </mxCell>
        <mxCell id="E06MnzWzpl7qg3DZkaAl-42" value="" style="endArrow=classic;html=1;rounded=0;" edge="1" parent="1">
          <mxGeometry width="50" height="50" relative="1" as="geometry">
            <mxPoint x="300" y="240" as="sourcePoint" />
            <mxPoint x="240" y="240" as="targetPoint" />
          </mxGeometry>
        </mxCell>
        <mxCell id="E06MnzWzpl7qg3DZkaAl-43" value="" style="endArrow=classic;html=1;rounded=0;" edge="1" parent="1">
          <mxGeometry width="50" height="50" relative="1" as="geometry">
            <mxPoint x="580" y="240" as="sourcePoint" />
            <mxPoint x="530" y="240" as="targetPoint" />
          </mxGeometry>
        </mxCell>
        <mxCell id="E06MnzWzpl7qg3DZkaAl-47" value="" style="endArrow=none;dashed=1;html=1;dashPattern=1 3;strokeWidth=2;rounded=0;" edge="1" parent="1" source="E06MnzWzpl7qg3DZkaAl-51">
          <mxGeometry width="50" height="50" relative="1" as="geometry">
            <mxPoint x="120" y="130" as="sourcePoint" />
            <mxPoint x="120" y="130" as="targetPoint" />
          </mxGeometry>
        </mxCell>
        <mxCell id="E06MnzWzpl7qg3DZkaAl-53" value="" style="endArrow=none;dashed=1;html=1;dashPattern=1 3;strokeWidth=2;rounded=0;" edge="1" parent="1" target="E06MnzWzpl7qg3DZkaAl-51">
          <mxGeometry width="50" height="50" relative="1" as="geometry">
            <mxPoint x="120" y="130" as="sourcePoint" />
            <mxPoint x="120" y="130" as="targetPoint" />
          </mxGeometry>
        </mxCell>
        <mxCell id="E06MnzWzpl7qg3DZkaAl-51" value="" style="html=1;shadow=0;dashed=0;align=center;verticalAlign=middle;shape=mxgraph.arrows2.arrow;dy=0.6;dx=40;direction=south;notch=0;" vertex="1" parent="1">
          <mxGeometry x="120" y="130" width="10" height="10" as="geometry" />
        </mxCell>
      </root>
    </mxGraphModel>
  </diagram>
</mxfile>
